<?xml version="1.0" encoding="UTF-8"?>
<svg version="1.1" xmlns="http://www.w3.org/2000/svg" width="2048" height="2048">
<path d="M0 0 C60.91664971 -0.0699476 121.83331449 -0.10543374 182.75 -0.125 C183.99225908 -0.12540399 185.23451817 -0.12580799 186.51442146 -0.12622422 C272.28752299 -0.15377068 358.06063798 -0.13165095 944.08525164 0.83139527 C950.31701203 0.84417863 956.54877243 0.85695545 962.78053284 0.86972809 C963.46582892 0.87113285 964.151125 0.8725376 964.85718762 0.87398493 C986.31290703 0.91795961 1007.76862785 0.96118215 1029.22434998 1.00380707 C1030.6059679 1.00655261 1031.98758582 1.00929824 1033.36920375 1.01204393 C1038.19715025 1.02163798 1043.02509676 1.03122997 1047.85304327 1.0408202 C1100.7031075 1.14580227 1153.55316372 1.25386766 1206.40320992 1.36764497 C1210.24158987 1.37590483 1214.07996983 1.38416366 1217.91834978 1.39242058 C1220.45973735 1.39788773 1223.00112492 1.40335739 1225.54251248 1.4088296 C1242.90047389 1.44616884 1260.25843772 1.48202703 1277.61640471 1.51667039 C1306.40834286 1.57416934 1335.20027169 1.63505206 1363.9921875 1.70288086 C1365.0663992 1.70540592 1366.1406109 1.70793097 1367.24737447 1.71053255 C1437.5011333 1.87638635 1507.75003604 2.22726156 1578 3 C1577.34230035 16.57803961 1576.28998252 30.10168732 1575.10609436 43.64302063 C1574.91129462 45.89497567 1574.71673912 48.14695185 1574.52240354 50.398947 C1573.98927555 56.56873223 1573.45270068 62.73821349 1572.91554829 68.90764947 C1572.39138383 74.93433311 1571.86986578 80.96124542 1571.34826178 86.98815107 C1570.26889954 99.45863561 1569.18692253 111.92889204 1568.10350609 124.39902496 C1567.00643826 137.02641866 1565.9105993 149.65391812 1564.81624794 162.28154755 C1564.74702306 163.08031984 1564.67779817 163.87909214 1564.60647556 164.70206965 C1564.25344667 168.7756682 1563.900438 172.84926849 1563.54743672 176.92286943 C1560.99242925 206.40695549 1558.43475387 235.89080962 1555.87567139 265.37454224 C1553.32933225 294.71156786 1550.78416438 324.04869472 1548.24053955 353.38595581 C1548.16121518 354.3008495 1548.08189081 355.2157432 1548.00016267 356.15836094 C1547.19450589 365.45048056 1546.3888733 374.74260227 1545.58325785 384.03472548 C1543.86327484 403.87333572 1542.14313087 423.71193201 1540.4229126 443.55052185 C1540.34093471 444.49594309 1540.25895683 445.44136433 1540.17449477 446.4154347 C1537.56307295 476.53194033 1534.9509506 506.64838516 1532.33831787 536.76478577 C1532.25369327 537.74027381 1532.16906867 538.71576184 1532.08187968 539.72081013 C1531.13944044 550.58451926 1530.19698634 561.44822711 1529.25452805 572.31193459 C1523.49523272 638.69931179 1517.73757289 705.08683044 1511.98291016 771.47460938 C1511.86015979 772.89069903 1511.86015979 772.89069903 1511.73492961 774.33539656 C1509.68288159 798.00855409 1507.63094304 821.68172112 1505.57904505 845.35489165 C1503.79268182 865.96451937 1502.00624756 886.57414094 1500.21980286 907.1837616 C1500.10003163 908.56552289 1500.10003163 908.56552289 1499.97784079 909.97519855 C1499.01523697 921.08044107 1498.05263015 932.18568333 1497.09002057 943.29092535 C1496.6125239 948.79961399 1496.13502834 954.30830273 1495.65753366 959.81699154 C1491.24275466 1010.74873902 1486.82769335 1061.68046201 1482.41204512 1112.61213414 C1481.90427416 1118.4689569 1481.39651514 1124.3257807 1480.88876092 1130.18260491 C1477.94424838 1164.14678611 1474.99928453 1198.11092801 1472.05242123 1232.07490534 C1470.97299998 1244.51579014 1469.89370206 1256.95668564 1468.81443213 1269.39758356 C1468.54731113 1272.47672258 1468.28018232 1275.55586092 1468.01304723 1278.63499872 C1464.45140591 1319.68863983 1460.89714672 1360.74291174 1457.35130975 1401.79792095 C1457.28157489 1402.60533463 1457.21184002 1403.41274831 1457.13999197 1404.24462907 C1456.999278 1405.8738653 1456.85856517 1407.50310163 1456.71785347 1409.13233805 C1455.68276018 1421.11698904 1454.64688064 1433.10157183 1453.61028481 1445.08609295 C1453.5098676 1446.24707913 1453.5098676 1446.24707913 1453.40742176 1447.43151957 C1452.74054968 1455.14153923 1452.07357914 1462.85155037 1451.40647072 1470.56154959 C1449.99423625 1486.88360639 1448.58397376 1503.20582999 1447.17782268 1519.52841207 C1446.17691898 1531.14636466 1445.17312902 1542.76406432 1444.1664485 1554.38151787 C1443.62472175 1560.63441929 1443.08438192 1566.88743287 1442.54762506 1573.14076304 C1442.05842737 1578.83984173 1441.56553617 1584.5385879 1441.06958403 1590.23708265 C1440.89058541 1592.30162503 1440.71299788 1594.3662903 1440.53691004 1596.43108297 C1440.29921892 1599.21595458 1440.05656776 1602.00034889 1439.8125782 1604.78467464 C1439.74433559 1605.59848516 1439.67609298 1606.41229567 1439.6057824 1607.2507671 C1439.11414692 1612.77170616 1439.11414692 1612.77170616 1438 1615 C1435.61266202 1615.85180113 1433.26753723 1616.58179765 1430.83081055 1617.26464844 C1430.07325879 1617.4836764 1429.31570704 1617.70270435 1428.53519917 1617.92836952 C1425.98779259 1618.66285667 1423.43730794 1619.38602416 1420.88671875 1620.109375 C1419.07906137 1620.62825057 1417.27161108 1621.14784811 1415.46435547 1621.66812134 C1411.58033842 1622.78466328 1407.69495744 1623.89627847 1403.80844116 1625.00408936 C1397.64782672 1626.76016009 1391.49028945 1628.52684513 1385.33325195 1630.29541016 C1377.97477449 1632.40840767 1370.61563952 1634.5190819 1363.25557232 1636.62653542 C1346.60464801 1641.39472219 1329.96636599 1646.2060778 1313.33120728 1651.02893066 C1308.65950381 1652.38329249 1303.98738978 1653.73623401 1299.31518555 1655.08886719 C1277.290825 1661.46528603 1255.26848407 1667.84867168 1233.24645996 1674.2331543 C1202.6433797 1683.10536968 1172.03675707 1691.96533299 1141.42965698 1700.82366943 C1130.27723619 1704.05141588 1119.12490897 1707.27948541 1107.97265625 1710.5078125 C1106.79803581 1710.84783798 1106.79803581 1710.84783798 1105.59968567 1711.19473267 C1100.06645389 1712.79647732 1094.53322639 1714.39823674 1089 1716 C1082.67578426 1717.83073956 1076.35156622 1719.66147119 1070.02734375 1721.4921875 C1068.8529348 1721.83215256 1068.8529348 1721.83215256 1067.65480042 1722.1789856 C1056.4904782 1725.41079519 1045.32605186 1728.64224487 1034.16156387 1731.87348175 C1026.96185285 1733.95724149 1019.76216782 1736.041091 1012.5625 1738.125 C1011.77275787 1738.35358704 1010.98301575 1738.58217407 1010.16934204 1738.81768799 C985.54310647 1745.94571477 960.91870435 1753.08004643 936.29562378 1760.21896362 C919.49230731 1765.09067949 902.6882364 1769.95977708 885.8828125 1774.82421875 C885.03565926 1775.06943394 884.18850601 1775.31464912 883.31568146 1775.56729507 C875.05682381 1777.95784756 866.79791545 1780.34822477 858.5388298 1782.73798943 C857.00962951 1783.18051572 855.48045703 1783.62313813 853.95131302 1784.06585884 C850.25275411 1785.13660289 846.55381455 1786.20598652 842.85394287 1787.27218628 C836.34909569 1789.14849387 829.84902488 1791.03727221 823.3650074 1792.98453426 C820.51277032 1793.84059466 817.65832444 1794.68915516 814.8037529 1795.53739357 C813.47141469 1795.93581084 812.14022957 1796.33810896 810.81035233 1796.74466515 C808.97988074 1797.30415271 807.14503332 1797.84926205 805.31005859 1798.39379883 C804.27996674 1798.70521317 803.24987488 1799.0166275 802.18856812 1799.33747864 C795.67518008 1800.69083179 790.31643582 1800.08997897 783.97680664 1798.28540039 C783.31676919 1798.10065344 782.65673174 1797.91590649 781.97669315 1797.72556114 C779.78493539 1797.10942156 777.59770556 1796.4785599 775.41015625 1795.84765625 C773.82951748 1795.40019689 772.24860748 1794.95369468 770.66744995 1794.5080719 C767.25945077 1793.54546109 763.8533941 1792.5763472 760.44869995 1791.60211182 C754.96879208 1790.03414819 749.4848543 1788.48062193 744.00024414 1786.92919922 C737.23341705 1785.01408834 730.4675701 1783.09558384 723.7029295 1781.17276382 C711.44105778 1777.68770987 699.17204267 1774.22864314 686.8984375 1770.78515625 C685.54301188 1770.40485008 685.54301188 1770.40485008 684.16020393 1770.01686096 C680.50447041 1768.99122182 676.84869059 1767.96574798 673.1928339 1766.94054794 C663.91974124 1764.34008053 654.64796985 1761.73491704 645.37628365 1759.12944031 C640.68986855 1757.81252263 636.00338563 1756.49584638 631.31689453 1755.17919922 C630.38610234 1754.91769703 629.45531015 1754.65619484 628.49631214 1754.38676834 C618.98195986 1751.7138445 609.46729982 1749.04201688 599.95261383 1746.37028122 C564.26967219 1736.35039739 528.58819225 1726.32548015 492.91533661 1716.26974106 C467.40927516 1709.07998665 441.89546103 1701.91809349 416.37901688 1694.76528168 C391.02698643 1687.65850726 365.67976122 1680.53499494 340.33831787 1673.39056396 C316.43338467 1666.65126016 292.52210741 1659.93482305 268.60723495 1653.23087692 C241.72531981 1645.69516505 214.84599663 1638.15038883 187.97344971 1630.58132935 C185.72704215 1629.9486369 183.48059202 1629.31609584 181.23413086 1628.68359375 C180.15793393 1628.38051709 180.15793393 1628.38051709 179.05999565 1628.07131767 C177.64416357 1627.67267037 176.2282772 1627.27421584 174.81233406 1626.87596321 C171.47550187 1625.93693284 168.13992266 1624.99390638 164.80709839 1624.04074097 C159.03722515 1622.39530055 153.26937058 1620.79721162 147.44384766 1619.35986328 C146.45423538 1619.10636612 145.46462311 1618.85286896 144.44502258 1618.59169006 C142.64524229 1618.13360821 140.83932976 1617.69865464 139.02702332 1617.29295349 C138.25087173 1617.09130081 137.47472015 1616.88964813 136.67504883 1616.68188477 C136.0074202 1616.52406021 135.33979156 1616.36623566 134.65193176 1616.20362854 C131.93622135 1614.22491088 131.64363578 1611.15128152 131 1608 C130.47766174 1604.04072634 130.16200136 1600.07124546 129.84949112 1596.09055233 C129.7492559 1594.8862127 129.64902069 1593.68187307 129.54574804 1592.4410383 C129.26840699 1589.09132313 128.99744219 1585.74120173 128.72912565 1582.39075885 C128.43489196 1578.7364423 128.13240306 1575.08280761 127.83096784 1571.42907935 C127.30183202 1565.00144562 126.7779879 1558.57339741 126.25755537 1552.14505339 C125.47906407 1542.52954383 124.69239118 1532.91471572 123.90408482 1523.30000648 C122.56296603 1506.93994845 121.22854499 1490.57935029 119.8977375 1474.21845055 C118.55210401 1457.67565507 117.20335332 1441.13311815 115.85075188 1424.59089088 C115.76553092 1423.54862448 115.68030997 1422.50635807 115.59250657 1421.43250784 C115.15816017 1416.12057059 114.72376077 1410.80863768 114.28934137 1405.4967064 C111.15125893 1367.12412284 108.01990386 1328.75099274 104.8921814 1290.37756348 C101.803666 1252.48546443 98.7124289 1214.59358908 95.61734009 1176.70202637 C95.52140898 1175.52757935 95.42547787 1174.35313233 95.32663976 1173.14309601 C94.1584659 1158.84167101 92.99017815 1144.54025533 91.8218546 1130.23884256 C90.04759696 1108.52009102 88.27361439 1086.80131701 86.49969732 1065.08253765 C86.30115981 1062.65176632 86.10262113 1060.22099509 85.90408129 1057.79022396 C82.8869888 1020.85120184 79.87139899 983.91205729 76.85691508 946.9728222 C67.09849691 827.39456169 57.32519053 707.81753327 45.56633024 564.26695152 C43.55149746 539.67083196 41.53719933 515.07466863 39.52300111 490.4784971 C39.07370391 484.99196937 38.62439921 479.50544225 38.17509472 474.01891512 C37.46244842 465.31667198 36.74980353 456.61442873 36.03716063 447.91218531 C35.94953122 446.84212327 35.86190181 445.77206123 35.77161697 444.66957307 C35.33128096 439.2925312 34.89094601 433.91548924 34.45061293 428.53844713 C33.23407548 413.68294688 32.01750775 398.82744911 30.80090332 383.97195435 C30.67304431 382.41070768 30.67304431 382.41070768 30.54260229 380.81792067 C28.56874467 356.71581434 26.59454751 332.61373587 24.61946106 308.51173019 C24.49174416 306.95319582 24.49174416 306.95319582 24.36144713 305.3631759 C23.93285741 300.13309574 23.5042631 294.90301595 23.07566751 289.67293627 C22.9050592 287.59102938 22.73445096 285.50912248 22.56384277 283.42721558 C22.47963445 282.39963523 22.39542612 281.37205488 22.30866602 280.31333573 C19.55468167 246.706709 16.80260101 213.09992687 14.05299939 179.49294126 C13.67453737 174.86719706 13.29605452 170.24145456 12.91755867 165.61571312 C12.84339909 164.70937251 12.7692395 163.80303191 12.69283266 162.86922644 C11.51880336 148.52151296 10.34281586 134.17396068 9.16599203 119.82647617 C8.01332608 105.77307054 6.86265196 91.71950303 5.71414701 77.66575671 C5.04119048 69.4318453 4.36666413 61.19806606 3.6898502 52.96447079 C3.18913228 46.87101662 2.69135481 40.77732612 2.19476033 34.68353435 C1.99396848 32.22531785 1.79220808 29.76718024 1.58939629 27.30912957 C1.31549376 23.98780708 1.04506751 20.66621947 0.77553844 17.34453964 C0.6957919 16.38779696 0.61604535 15.43105427 0.53388225 14.44531938 C0.14552023 9.61065346 -0.08238977 4.85023378 0 0 Z " fill="#0074BE" transform="translate(235,124)"/>
<path d="M0 0 C329.67 0 659.34 0 999 0 C999 63.03 999 126.06 999 191 C992.48420708 193.96172405 986.00934442 196.88937218 979.3984375 199.609375 C978.22488205 200.09503937 978.22488205 200.09503937 977.02761841 200.59051514 C974.47746598 201.64542902 971.92623304 202.69770254 969.375 203.75 C967.55655679 204.50175037 965.73819911 205.25370766 963.91992188 206.00585938 C960.14974338 207.56525128 956.3792019 209.12376062 952.60839844 210.68164062 C944.74625643 213.9306165 936.88861849 217.19044394 929.03091431 220.45013428 C924.7773066 222.21460213 920.52341714 223.97839042 916.26953125 225.7421875 C915.42478745 226.09246002 914.58004364 226.44273254 913.70970154 226.80361938 C908.53478273 228.94931066 903.35958015 231.09431606 898.18417358 233.23883057 C881.11659551 240.31108986 864.05163354 247.38937112 847 254.5 C829.07909277 261.97312099 811.14324058 269.41000424 793.20556641 276.84277344 C788.04691368 278.98042813 782.88863019 281.11897263 777.73046875 283.2578125 C776.88585083 283.60803467 776.04123291 283.95825684 775.17102051 284.3190918 C772.61400734 285.37937926 770.05700208 286.4396858 767.5 287.5 C758.06173496 291.41377327 748.6234552 295.32750957 739.18417358 299.23883057 C722.11659551 306.31108986 705.05163354 313.38937112 688 320.5 C670.07909277 327.97312099 652.14324058 335.41000424 634.20556641 342.84277344 C629.04691367 344.98042813 623.88863126 347.11897521 618.73046875 349.2578125 C617.88431 349.60866913 617.03815125 349.95952576 616.16635132 350.3210144 C611.93149299 352.0770174 607.69668319 353.83313736 603.46191406 355.58935547 C595.41261578 358.92736757 587.362875 362.26430214 579.3117981 365.59802246 C575.4844065 367.18290229 571.65723345 368.76830948 567.83007812 370.35375977 C565.99538968 371.11362764 564.16059271 371.87323353 562.32568359 372.63256836 C559.79107099 373.68147795 557.25682446 374.73126728 554.72265625 375.78125 C553.58830894 376.25026733 553.58830894 376.25026733 552.43104553 376.72875977 C548.67623413 378.27702957 548.67623413 378.27702957 545 380 C682.28 380.33 819.56 380.66 961 381 C960.36812682 394.26933681 959.65100716 407.44626519 958.51171875 420.66796875 C958.36689456 422.3832705 958.22243964 424.09860347 958.07832336 425.81396484 C957.77511488 429.4152524 957.46970161 433.01634244 957.16235352 436.61727905 C956.43454709 445.14540304 955.71792156 453.67447112 954.99991226 462.20342445 C954.76279506 465.0184721 954.52521189 467.83348013 954.28756714 470.64848328 C953.22619111 483.23301245 952.2023355 495.82001451 951.21731567 508.4107666 C950.03935618 523.46204856 948.79418322 538.50654809 947.484375 553.546875 C947.41573557 554.3351984 947.34709614 555.1235218 947.27637672 555.9357338 C946.69420494 562.61941557 946.11104739 569.30301147 945.52740097 575.98656464 C943.58705315 598.21223421 941.70227244 620.44153485 939.91015625 642.6796875 C939.82255665 643.76649622 939.73495705 644.85330494 939.64470291 645.97304726 C938.78403014 656.65959494 937.92832066 667.34652991 937.07983208 678.0340519 C935.41956456 698.93344815 933.68611777 719.82191337 931.76066017 740.6986618 C929.80145999 761.94835106 928.01713841 783.21162283 926.25566101 804.47850037 C925.99496733 807.62320832 925.73349937 810.76785103 925.47180176 813.91247559 C923.42517373 838.50824043 921.41139404 863.10552333 919.52249146 887.71395874 C918.30281432 903.57775824 916.90811279 919.42129293 915.4375 935.26367188 C913.80961162 952.83061754 912.38131313 970.41212821 911 988 C903.59117596 991.15835625 896.04382057 993.64707833 888.34609985 996.00238037 C884.7902957 997.09104757 881.23915949 998.19477645 877.6875 999.296875 C876.95940628 999.52249115 876.23131256 999.7481073 875.4811554 999.9805603 C868.24159671 1002.22742571 861.02482304 1004.54211126 853.8125 1006.875 C853.17649872 1007.08047455 852.54049744 1007.2859491 851.88522339 1007.49765015 C845.25718282 1009.63922457 838.63250992 1011.79083061 832.01350403 1013.96017456 C810.09673734 1021.14171773 788.09728399 1028.04509624 766.0715332 1034.8835144 C750.4832019 1039.72341489 734.90372815 1044.58210505 719.38354492 1049.63720703 C710.84176624 1052.41757033 702.27638245 1055.11537915 693.70196533 1057.79281616 C682.42832367 1061.31353121 671.18969617 1064.90618696 660 1068.6875 C637.79069134 1076.17369842 615.3740797 1083.02637318 593 1090 C590.83495339 1090.67494323 588.66991424 1091.3499104 586.50488281 1092.02490234 C585.44856659 1092.35422256 584.39225037 1092.68354279 583.30392456 1093.02284241 C580.1613033 1094.00283421 577.01887052 1094.9834285 573.87646484 1095.96411133 C569.83337992 1097.22584717 565.78933767 1098.48444701 561.74462891 1099.7409668 C552.93342498 1102.48305126 544.13906639 1105.25848431 535.390625 1108.1953125 C533.94043652 1108.67856868 532.49024145 1109.16180509 531.04003906 1109.64501953 C528.44610154 1110.5104085 525.86274697 1111.39635164 523.28027344 1112.29638672 C512.833679 1115.79705939 506.03134178 1114.19713183 495.625 1111.25 C494.65602783 1110.98050537 493.68705566 1110.71101074 492.6887207 1110.43334961 C490.7161338 1109.88421225 488.74420031 1109.33272197 486.77294922 1108.77880859 C484.33064412 1108.09286448 481.88674111 1107.41332683 479.44140625 1106.73828125 C469.70496134 1104.04914673 459.98075058 1101.31591665 450.25439453 1098.59057617 C441.17338956 1096.04664605 432.0878144 1093.51947752 423 1091 C415.10702088 1088.81177491 407.21441572 1086.62239038 399.328125 1084.41015625 C398.33006836 1084.13018799 397.33201172 1083.85021973 396.30371094 1083.56176758 C394.21056682 1082.97452619 392.11746852 1082.38712145 390.02441406 1081.79956055 C384.23940538 1080.17824262 378.45071016 1078.5716062 372.65625 1076.984375 C351.1108407 1071.08117541 351.1108407 1071.08117541 341.3125 1068.0625 C330.72872567 1064.80814001 320.01417941 1062.04109137 309.30200195 1059.24633789 C300.49896205 1056.94718067 291.74172978 1054.5244833 283 1052 C279.14799241 1050.90893597 275.29295012 1049.82882898 271.4375 1048.75 C270.38667236 1048.45552979 269.33584473 1048.16105957 268.25317383 1047.85766602 C262.38648552 1046.21654111 256.51607405 1044.58995854 250.640625 1042.98046875 C229.09399795 1037.07598649 229.09399795 1037.07598649 219.3125 1034.0625 C208.72872567 1030.80814001 198.01417941 1028.04109137 187.30200195 1025.24633789 C178.49809156 1022.94686314 169.74253826 1020.52468813 161 1018 C158.23160574 1017.2202508 155.45993174 1016.45275074 152.6875 1015.6875 C142.17068254 1012.77367466 131.65971853 1009.83914679 121.15380859 1006.88623047 C119.05281526 1006.29584451 116.95157828 1005.7063249 114.85009766 1005.11767578 C111.89908107 1004.29023112 108.94936762 1003.45830042 106 1002.625 C105.10369873 1002.37435791 104.20739746 1002.12371582 103.28393555 1001.86547852 C97.11455065 1000.11455065 97.11455065 1000.11455065 96 999 C95.76927604 997.30435315 95.60226356 995.60000601 95.4602356 993.89463806 C95.31797861 992.22679496 95.31797861 992.22679496 95.17284775 990.52525806 C95.072141 989.28965484 94.97143425 988.05405161 94.86767578 986.78100586 C94.75818729 985.48190875 94.64869881 984.18281164 94.53589249 982.84434795 C94.2951248 979.98686865 94.05728896 977.12916494 93.8216362 974.27125931 C93.4404103 969.6479447 93.05291678 965.02516765 92.66470337 960.4024353 C92.10554487 953.73617936 91.54946203 947.06967294 90.9954834 940.40298462 C90.12550434 929.93453904 89.24959895 919.46659445 88.37207031 908.9987793 C88.29894245 908.12641479 88.22581459 907.25405028 88.15047073 906.35525048 C87.85339596 902.81154058 87.55629507 899.26783288 87.25910854 895.72413236 C86.8837004 891.24762035 86.50848869 886.77109204 86.13371277 882.29452705 C84.02684259 857.12873865 81.8943206 831.96530513 79.7265625 806.8046875 C79.66237263 806.05944895 79.59818276 805.3142104 79.53204775 804.54638886 C78.31109331 790.37179746 77.08665606 776.19750805 75.8591913 762.02347898 C75.35736065 756.22786455 74.85687979 750.43213407 74.35676193 744.63637161 C74.05845397 741.18475735 73.75848278 737.73329056 73.45840454 734.28182983 C72.146813 719.13938486 71 704.22088196 71 689 C135.02 689 199.04 689 265 689 C266.32 701.21 267.64 713.42 269 726 C269.81164638 733.47926083 270.62373896 740.95846953 271.4375 748.4375 C271.64421693 750.33813355 271.8509223 752.23876835 272.05761719 754.1394043 C272.37812243 757.08655521 272.69863604 760.03370521 273.01919556 762.98085022 C273.81154973 770.26581682 274.60316668 777.55086334 275.39453125 784.8359375 C275.73608855 787.97982849 276.07765353 791.12371865 276.41921997 794.26760864 C276.63741448 796.27612947 276.85557522 798.28465397 277.07369995 800.29318237 C277.37715814 803.08739289 277.68075263 805.88158857 277.984375 808.67578125 C278.07270096 809.48941132 278.16102692 810.30304138 278.25202942 811.1413269 C278.33611557 811.91493561 278.42020172 812.68854431 278.50683594 813.4855957 C278.62781395 814.60081856 278.62781395 814.60081856 278.75123596 815.73857117 C278.92452137 817.31384954 279.10168711 818.88870387 279.28184509 820.46321106 C279.37276932 821.25990707 279.46369354 822.05660309 279.55737305 822.87744141 C279.63988815 823.59050446 279.72240326 824.3035675 279.80741882 825.03823853 C280.23079881 829.35107206 280.05476606 833.67348095 280 838 C280.83591675 838.1556543 280.83591675 838.1556543 281.6887207 838.31445312 C289.25782471 839.77172096 296.71607594 841.61264868 304.1875 843.5 C305.58713605 843.85181341 306.98679489 844.20353616 308.38647461 844.55517578 C323.44018695 848.34319213 338.47458969 852.20725907 353.50828552 856.0737915 C361.6942782 858.1791416 369.88182276 860.27841993 378.06954956 862.37701416 C382.12976617 863.41775024 386.1898777 864.45889609 390.25 865.5 C391.8749995 865.91666862 393.4999995 866.33333529 395.125 866.75 C404.87500011 869.25000003 404.87500011 869.25000003 407.31207275 869.87489319 C408.93849515 870.29192275 410.56491931 870.70894544 412.19134521 871.1259613 C416.23209693 872.16201975 420.27281887 873.19819403 424.31347656 874.23461914 C431.88504833 876.17658975 439.45691398 878.11739254 447.02978516 880.05429077 C450.58206158 880.96292223 454.13417631 881.87218493 457.6862793 882.78149414 C459.36930431 883.21214724 461.0524073 883.64249572 462.7355957 884.07250977 C464.32166479 884.47772628 465.90760647 884.88344185 467.4934082 885.28970337 C468.98757806 885.67201547 470.48219636 886.05257994 471.97729492 886.4312439 C476.0382347 887.46627435 480.03882841 888.6206607 484.046875 889.84765625 C489.07864962 891.20462447 492.9261824 891.0065738 498 890 C499.12664062 889.79487793 500.25328125 889.58975586 501.4140625 889.37841797 C505.61594445 888.59582798 509.8078431 887.77019522 514 886.9375 C515.59017625 886.62454033 517.1804288 886.31196814 518.77075195 885.99975586 C522.13086104 885.33970208 525.49060215 884.67781789 528.85009766 884.01464844 C536.44140877 882.51732504 544.03662606 881.04004227 551.63143921 879.56060791 C555.95241946 878.71856438 560.27307236 877.87484465 564.59375 877.03125 C571.42695654 875.69726612 578.26029036 874.36393673 585.09375 873.03125 C604.02830133 869.33835774 622.96167391 865.6394998 641.89367676 861.93356323 C652.42716609 859.87164083 662.96099873 857.811517 673.49609375 855.7578125 C674.42410797 855.57688049 675.35212219 855.39594849 676.30825806 855.20953369 C680.68652663 854.35597913 685.06487455 853.50283516 689.44335938 852.65039062 C690.63223251 852.41863129 690.63223251 852.41863129 691.84512329 852.18218994 C693.38322475 851.88250635 694.9214499 851.58345677 696.45980835 851.28509521 C700.06970631 850.58276733 703.67480066 849.86413277 707.27392578 849.10839844 C707.95173599 848.96759857 708.6295462 848.82679871 709.32789612 848.68173218 C711.1480336 848.302042 712.96677901 847.91569534 714.78540039 847.52880859 C717.92246824 847.01275414 720.82761216 846.90214794 724 847 C724.06803833 845.56382324 724.06803833 845.56382324 724.13745117 844.09863281 C724.72215263 832.66680644 725.80099755 821.30979027 726.9831543 809.92602539 C728.79411364 792.46214838 730.48491478 774.99193911 732 757.5 C733.37502562 741.65304485 734.89234957 725.82501894 736.5 710 C738.12142382 694.02890616 739.66068824 678.05441898 741.0625 662.0625 C741.1825943 660.69472412 741.1825943 660.69472412 741.30511475 659.29931641 C741.62593578 655.64456992 741.94645945 651.98979748 742.26660156 648.33499146 C743.11508853 638.66075557 743.98099953 628.98816714 744.86764526 619.31735229 C745.03625132 617.47156288 745.20339946 615.62563957 745.368927 613.77957153 C745.59885772 611.21726202 745.83398536 608.65547647 746.0703125 606.09375 C746.13477066 605.36328964 746.19922882 604.63282928 746.26564026 603.88023376 C746.8941618 597.17743279 747.96967858 590.69708921 749 584 C521.96 584 294.92 584 61 584 C58.69 567.83 56.38 551.66 54 535 C53.16218994 529.13645752 52.32437988 523.27291504 51.46118164 517.23168945 C49.63505649 504.44566655 47.8125913 491.65912687 45.99320316 478.87214375 C44.90884136 471.25175034 43.82278875 463.6316043 42.7331543 456.01196289 C41.76128257 449.21578596 40.79233241 442.41920011 39.8269338 435.62210053 C39.32167385 432.06540401 38.81500903 428.5089215 38.3047657 424.95293617 C37.74297835 421.0373814 37.18772789 417.1209152 36.63305664 413.2043457 C36.46638992 412.0498996 36.29972321 410.89545349 36.12800598 409.70602417 C35.90337677 408.10862648 35.90337677 408.10862648 35.67420959 406.47895813 C35.54318879 405.55996892 35.41216799 404.64097971 35.27717686 403.69414234 C34.97727894 400.77915269 34.95356851 397.92834044 35 395 C41.96438526 391.41268166 49.02402943 388.18894337 56.2421875 385.1484375 C57.30622803 384.69699875 58.37026855 384.24556 59.46655273 383.78044128 C61.74762398 382.81291579 64.02927718 381.84676138 66.3114624 380.88186646 C71.79889145 378.56146923 77.28256972 376.23224907 82.76617813 373.90284157 C84.00781809 373.37543781 85.24950478 372.84814407 86.49123764 372.32095909 C97.97213704 367.44653185 109.42928618 362.51887773 120.875 357.5625 C137.31897091 350.44549648 153.7793164 343.36746778 170.25 336.3125 C171.42608826 335.80872833 172.60217651 335.30495667 173.81390381 334.78591919 C179.81132842 332.21710778 185.80894304 329.64874038 191.80664062 327.08056641 C198.88728455 324.04852035 205.96720561 321.01478951 213.046875 317.98046875 C214.77622536 317.23927544 214.77622536 317.23927544 216.54051208 316.48310852 C221.18621802 314.49192922 225.83189339 312.50067862 230.47756958 310.50942993 C242.92739362 305.17319799 255.37760085 299.83786604 267.82932663 294.506073 C298.68379657 281.29749555 298.68379657 281.29749555 329.5 268 C344.58785259 261.46185889 359.69748711 254.9750891 374.8125 248.5 C375.99486237 247.993479 377.17722473 247.48695801 378.39541626 246.96508789 C387.54615147 243.04521808 396.69747323 239.1267184 405.84886169 235.20837402 C413.79481077 231.80614415 421.74052357 228.4033636 429.68588257 224.99975586 C433.01733441 223.57288256 436.34910818 222.14676317 439.6809082 220.72070312 C458.8080617 212.52760891 477.90076185 204.25913001 497 196 C341.9 195.67 186.8 195.34 27 195 C23.56194808 175.51770579 23.56194808 175.51770579 22.60546875 167.9375 C22.49298798 167.07510712 22.3805072 166.21271423 22.26461792 165.32418823 C22.02602429 163.4947796 21.78891664 161.66517659 21.55325317 159.83538818 C19.5312417 144.16037058 17.38697969 128.50791987 15.0625 112.875 C11.96075112 91.98343105 9.09940048 71.0608725 6.25067139 50.1335144 C5.33212316 43.39782499 4.39578018 36.66484907 3.4453125 29.93359375 C3.32589798 29.08546616 3.20648346 28.23733856 3.08345032 27.36351013 C2.4132515 22.60281348 2.4132515 22.60281348 1.73605347 17.84310913 C1.43698357 15.75258068 1.1419378 13.66151946 0.84765625 11.5703125 C0.68273682 10.41289551 0.51781738 9.25547852 0.34790039 8.06298828 C0 5 0 5 0 0 Z " fill="#FEFEFE" transform="translate(519,468)"/>
<path d="M0 0 C71.06816322 0.21276688 71.06816322 0.21276688 93.07249451 0.27928162 C93.85725367 0.28165334 94.64201284 0.28402507 95.45055259 0.28646867 C121.89546977 0.3664076 148.34038301 0.4475821 174.78529358 0.52967834 C176.08105724 0.53370047 176.08105724 0.53370047 177.40299795 0.53780385 C196.18170681 0.59610075 214.96041503 0.6545973 233.73912263 0.71329921 C242.94969817 0.74209009 252.16027385 0.77083691 261.37084961 0.79956055 C262.28735766 0.80241947 263.20386571 0.8052784 264.14814673 0.80822396 C293.79459148 0.90068153 323.44104413 0.99023546 353.08750233 1.07826548 C383.58175957 1.16882835 414.07600633 1.26235685 444.57024317 1.35955721 C448.88847361 1.3733202 453.20670416 1.38704968 457.52493477 1.40075874 C458.79962837 1.40480706 458.79962837 1.40480706 460.10007337 1.40893716 C473.7174644 1.45209898 487.33486279 1.49218276 500.9522666 1.53108265 C514.67987097 1.57036423 528.40746198 1.61296662 542.13504594 1.65883821 C549.55768112 1.68355227 556.9803138 1.70686833 564.40296555 1.7260437 C622.27136381 1.87691955 622.27136381 1.87691955 649 3 C649.00696403 5.07226368 649.01192162 7.14453416 649.01603794 9.21680546 C649.02050351 10.94779723 649.02050351 10.94779723 649.02505928 12.71375853 C648.99443355 16.729977 648.74579342 20.68647517 648.37670898 24.68334961 C648.30977718 25.45893125 648.24284538 26.23451288 648.17388535 27.03359699 C647.95331568 29.57368147 647.72478043 32.1129783 647.49609375 34.65234375 C647.33540749 36.48292964 647.17520817 38.31355833 647.01545715 40.14422607 C646.5854467 45.05540349 646.14842193 49.96593345 645.71003723 54.87636948 C645.25077342 60.03480769 644.79822817 65.19383583 644.34472656 70.3527832 C641.8730889 98.42666257 639.34722783 126.49577492 636.80917358 154.5637207 C634.87319513 175.97691985 632.99863305 197.39285768 631.32910156 218.82885742 C630.63659948 227.65211853 629.86852213 236.46273108 628.99385834 245.27000046 C627.34250294 261.91875149 625.92165693 278.58051174 624.5816803 295.25685883 C623.94104402 303.22590005 623.28915691 311.19402705 622.63671875 319.16210938 C622.53597408 320.39313802 622.53597408 320.39313802 622.43319416 321.64903593 C620.94057061 339.87004081 619.37221931 358.08422443 617.78125 376.296875 C617.7140979 377.06589457 617.6469458 377.83491413 617.57775879 378.62723732 C616.75993809 387.99120942 615.93924604 397.35492844 615.11712074 406.7185235 C614.36162716 415.32392689 613.60851809 423.92953869 612.85546875 432.53515625 C612.58197979 435.66032538 612.30847579 438.78549319 612.03495789 441.91065979 C611.93365791 443.0681189 611.93365791 443.0681189 611.83031148 444.24896103 C611.35794813 449.64562063 610.88504373 455.04223265 610.41194153 460.43882751 C609.0463849 476.01798545 607.68593401 491.59756989 606.3347168 507.17797852 C606.19768078 508.75745499 606.06063972 510.33693104 605.92359352 511.91640663 C605.13932804 520.95577228 605.13932804 520.95577228 604.35702515 529.99530792 C602.9032904 546.81535068 601.40741725 563.63021606 599.8125 580.4375 C599.6435522 582.22552091 599.47475198 584.01355577 599.30610657 585.80160522 C599.2323647 586.58307104 599.15862284 587.36453686 599.08264637 588.16968346 C597.97464631 599.97257527 597.01957214 611.78622707 596.1262207 623.60717773 C595.3631955 633.66638321 594.51976058 643.71811102 593.65527344 653.76904297 C593.52234356 655.31704869 593.38941767 656.86505476 593.25649548 658.41306114 C591.82589108 675.06204814 590.37919965 691.70963712 588.92967725 708.35698605 C588.70221702 710.96935361 588.47481304 713.58172607 588.24741936 716.19409943 C587.27138001 727.4065825 586.29458476 738.61899961 585.31739807 749.83138275 C584.97974748 753.7056692 584.64217449 757.5799624 584.30467224 761.45426178 C577.22249404 842.75204273 577.22249404 842.75204273 574.33984375 874.765625 C574.24524683 875.81621975 574.15064991 876.8668145 574.05318642 877.94924545 C573.22983459 887.08577844 572.40215167 896.22190536 571.56548786 905.35722923 C571.21425679 909.19376603 570.86445131 913.03043134 570.515625 916.8671875 C570.45051916 917.58267887 570.38541332 918.29817024 570.31833458 919.03534317 C569.20967801 931.26133024 568.24127911 943.4964203 567.29824066 955.73615837 C566.36859023 967.76974873 565.28277649 979.77722359 564.08868408 991.78761292 C562.85299427 1004.28931375 561.83797749 1016.80550613 560.83889771 1029.32797241 C557.98053743 1065.10534037 554.8698684 1100.86119593 551.7436204 1136.61594582 C551.5624184 1138.68843332 551.38127691 1140.76092611 551.20014572 1142.8334198 C548.06285671 1178.72626325 544.88816581 1214.61558465 541.63815308 1250.49841309 C539.69362309 1271.9719138 537.83861879 1293.45092551 536.15258789 1314.9465332 C536.07991196 1315.865383 536.00723602 1316.78423279 535.93235779 1317.73092651 C535.80102818 1319.39582414 535.67157231 1321.06087135 535.54457092 1322.72610474 C534.81437369 1331.98792264 534.81437369 1331.98792264 534 1336 C531.51248213 1337.55787615 529.78194211 1338.21041521 527 1339 C526.00049316 1339.30856934 525.00098633 1339.61713867 523.97119141 1339.93505859 C520.26240527 1341.05834493 516.53967682 1342.12745235 512.8125 1343.1875 C511.42811376 1343.58474439 510.04383808 1343.98237426 508.65966797 1344.38037109 C505.12171942 1345.3965121 501.58226194 1346.40728893 498.04241943 1347.41680908 C494.89832055 1348.31457273 491.75586489 1349.21804269 488.61328125 1350.12109375 C478.52851403 1353.01503208 468.43762552 1355.88380437 458.328125 1358.69018555 C448.61986672 1361.3866724 438.96314066 1364.20307094 429.33520508 1367.1730957 C420.71487698 1369.8163355 412.04875038 1372.28965047 403.375 1374.75 C390.84667321 1378.30379713 378.35124147 1381.95501386 365.875 1385.6875 C354.73477188 1389.01927608 343.58224856 1392.27725709 332.37402344 1395.37451172 C323.03617179 1397.96462846 313.74494821 1400.70698302 304.45269775 1403.45489502 C293.54826747 1406.67825937 282.62598334 1409.83178833 271.6875 1412.9375 C259.38880887 1416.42981915 247.12391765 1420.02452739 234.875 1423.6875 C223.73243461 1427.01960209 212.57753106 1430.27750633 201.36743164 1433.37670898 C192.82316534 1435.74752156 184.31603301 1438.23805345 175.8125 1440.75 C163.48931619 1444.38976483 151.15686527 1447.9951903 138.8125 1451.5625 C137.61258423 1451.90926285 137.61258423 1451.90926285 136.38842773 1452.26303101 C133.20026243 1453.18430068 130.01208868 1454.10554105 126.82385254 1455.02656555 C121.86034585 1456.46087166 116.89826335 1457.89998545 111.9375 1459.34375 C111.29991257 1459.5292894 110.66232513 1459.7148288 110.00541687 1459.9059906 C109.37416397 1460.08968704 108.74291107 1460.27338348 108.0925293 1460.46264648 C95.90449323 1464.00892966 83.70684075 1467.51914045 71.5 1471 C60.18113192 1474.22814567 48.86673568 1477.47094484 37.5625 1480.75 C36.92179565 1480.9356955 36.28109131 1481.12139099 35.62097168 1481.31271362 C29.31441207 1483.14173676 23.01361368 1484.9864813 16.73046875 1486.89453125 C15.79323975 1487.1790918 14.85601074 1487.46365234 13.89038086 1487.75683594 C12.19070095 1488.27546226 10.49219044 1488.79794476 8.79516602 1489.32519531 C5.7578223 1490.25502854 3.19648454 1491 0 1491 C0 1429.95 0 1368.9 0 1306 C32.81753342 1295.45150711 32.81753342 1295.45150711 48.29174805 1290.5703125 C49.42655609 1290.21227539 50.56136414 1289.85423828 51.7305603 1289.48535156 C53.47268295 1288.93572754 53.47268295 1288.93572754 55.25 1288.375 C57.72371583 1287.59375519 60.19742999 1286.81250509 62.67114258 1286.03125 C74.54380841 1282.28376196 86.42054147 1278.5499725 98.30859375 1274.8515625 C99.35384216 1274.52633606 100.39909058 1274.20110962 101.47601318 1273.86602783 C102.50438293 1273.54607849 103.53275269 1273.22612915 104.59228516 1272.89648438 C106.62403425 1272.26435768 108.65577265 1271.6321966 110.6875 1271 C111.686745 1270.68909424 112.68598999 1270.37818848 113.71551514 1270.05786133 C126.47256926 1266.08484376 139.17381293 1261.99148915 151.82910156 1257.70507812 C162.47646417 1254.12140392 173.20013837 1250.80232749 183.9375 1247.5 C197.32922723 1243.38121962 210.69496889 1239.20449189 224.02148438 1234.87890625 C225.26091797 1234.47671875 226.50035156 1234.07453125 227.77734375 1233.66015625 C228.41167328 1233.45431915 229.04600281 1233.24848206 229.69955444 1233.03640747 C239.10116191 1229.98985038 248.51987252 1226.99658159 257.9375 1224 C258.87855591 1223.70046417 259.81961182 1223.40092834 260.78918457 1223.09231567 C270.28374582 1220.07130963 279.78092894 1217.05932416 289.29296875 1214.09375 C290.01183762 1213.86961426 290.73070648 1213.64547852 291.47135925 1213.41455078 C294.73889348 1212.3966335 298.00733001 1211.38181737 301.27709961 1210.37109375 C307.6817497 1208.3835819 314.05499043 1206.32265555 320.41015625 1204.18359375 C332.50701388 1200.11848324 344.70717932 1196.38282136 356.89672852 1192.60717773 C370.98975881 1188.23857339 385.02219366 1183.72490512 399 1179 C399.06628601 1178.18315735 399.13257202 1177.3663147 399.2008667 1176.52471924 C400.04736941 1166.09955047 400.89737207 1155.67466959 401.75 1145.25 C401.81887043 1144.40781166 401.88774086 1143.56562332 401.95869827 1142.69791412 C403.53628197 1123.41572223 405.12164659 1104.13647458 406.9375 1084.875 C408.98439198 1063.10121096 410.6947581 1041.29975054 412.4375 1019.5 C412.59086003 1017.58228549 412.74422103 1015.66457105 412.89758301 1013.74685669 C413.20263969 1009.93175947 413.50766422 1006.11665969 413.81268311 1002.30155945 C413.88753685 1001.36538977 413.96239059 1000.42922009 414.03951263 999.46468163 C414.19021301 997.57988834 414.34089356 995.69509347 414.49155426 993.81029701 C415.86421315 976.64218626 417.25861138 959.47603062 418.6875 942.3125 C418.84014816 940.47807846 418.84014816 940.47807846 418.99588013 938.6065979 C420.28764072 923.12084431 421.66473073 907.64532379 423.10983276 892.17324829 C425.10519919 870.69554 426.76420653 849.19001818 428.47353363 827.68813705 C430.85205744 797.78008839 433.36949333 767.88690208 436 738 C438.96894975 704.26678568 441.78479923 670.52408491 444.44817066 636.76532459 C444.71982933 633.32418864 444.99273198 629.88315168 445.26563072 626.44211388 C445.44437076 624.17977686 445.62086606 621.91727478 445.79707336 619.65473938 C447.05516855 603.75450471 448.55557524 587.88867231 450 572 C311.73 572 173.46 572 31 572 C34.24592759 569.83604827 37.58308413 568.39463072 41.1640625 566.90234375 C41.89102829 566.59656403 42.61799408 566.2907843 43.36698914 565.97573853 C45.78499728 564.95979275 48.20494513 563.94855968 50.625 562.9375 C52.3375554 562.2194906 54.05003781 561.50130709 55.76245117 560.78295898 C72.23415329 553.87943468 88.73294316 547.04088743 105.23608398 540.2129364 C113.80617828 536.66715176 122.37348219 533.1146517 130.94052124 529.56149292 C135.21023149 527.7907155 139.48012502 526.02038016 143.75 524.25 C145.45833421 523.54166878 147.16666754 522.83333545 148.875 522.125 C152.29166667 520.70833333 155.70833333 519.29166667 159.125 517.875 C160.39339973 517.34907761 160.39339973 517.34907761 161.68742371 516.81253052 C163.3960103 516.10409292 165.10459795 515.39565786 166.81318665 514.68722534 C171.08015374 512.91800809 175.34710261 511.14874691 179.61401367 509.37939453 C187.34763585 506.17255802 195.08139642 502.96605723 202.81582642 499.76116943 C219.88340449 492.68891014 236.94836646 485.61062888 254 478.5 C271.92090723 471.02687901 289.85675942 463.58999576 307.79443359 456.15722656 C312.95308632 454.01957187 318.11136981 451.88102737 323.26953125 449.7421875 C324.11414917 449.39196533 324.95876709 449.04174316 325.82897949 448.6809082 C328.38599266 447.62062074 330.94299792 446.5603142 333.5 445.5 C342.93826504 441.58622673 352.3765448 437.67249043 361.81582642 433.76116943 C378.88340531 426.6889098 395.94824655 419.61034254 413 412.5 C425.36921993 407.34286684 437.74138731 402.19287513 450.11889648 397.05566406 C451.8820579 396.32374352 453.6450841 395.59149713 455.40795898 394.85888672 C457.88225018 393.83074022 460.3570761 392.80389078 462.83203125 391.77734375 C463.53705276 391.48411728 464.24207428 391.19089081 464.96846008 390.88877869 C472.28620925 387.85683883 479.64339862 384.94264055 487 382 C487.33 318.97 487.66 255.94 488 191 C326.96 191 165.92 191 0 191 C0 127.97 0 64.94 0 0 Z " fill="#0089CA" transform="translate(1030,277)"/>
<path d="M0 0 C78.54 0 157.08 0 238 0 C236.87700965 14.5988746 236.87700965 14.5988746 236.23828125 21.35546875 C236.16731735 22.11122696 236.09635345 22.86698517 236.02323914 23.64564514 C235.86870037 25.29143192 235.71372459 26.9371777 235.55834961 28.58288574 C234.18851316 43.09539831 232.84952575 57.61056901 231.54296875 72.12890625 C226.92923727 123.36011315 226.92923727 123.36011315 224.70211792 144.34262085 C223.14286049 159.06719036 221.85019662 173.81200221 220.5625 188.5625 C218.39269844 213.41624454 215.82254257 238.2124493 213 263 C175.34867012 270.60580105 175.34867012 270.60580105 157.9375 273.8125 C143.0933819 276.55094353 128.29805572 279.52379124 113.5 282.5 C97.73677916 285.67028898 81.97453767 288.80947967 66.15917969 291.70947266 C57.78917851 293.25695221 49.44189782 294.90161452 41.09765625 296.58203125 C39.95975143 296.81102615 38.82184662 297.04002106 37.64945984 297.2759552 C31.93131614 298.42798043 26.21438716 299.58570479 20.4987793 300.75024414 C18.40024505 301.17472688 16.30169437 301.59912841 14.203125 302.0234375 C13.23178116 302.22310623 12.26043732 302.42277496 11.25965881 302.62849426 C9.91151344 302.90012642 9.91151344 302.90012642 8.53613281 303.17724609 C7.75328918 303.33679779 6.97044556 303.49634949 6.16387939 303.66073608 C4 304 4 304 0 304 C0 203.68 0 103.36 0 0 Z " fill="#0089CA" transform="translate(1030,1052)"/>
</svg>
