<?xml version="1.0" standalone="no"?>
<!DOCTYPE svg PUBLIC "-//W3C//DTD SVG 20010904//EN"
 "http://www.w3.org/TR/2001/REC-SVG-20010904/DTD/svg10.dtd">
<svg version="1.0" xmlns="http://www.w3.org/2000/svg"
 width="195.000000pt" height="200.000000pt" viewBox="0 0 195.000000 200.000000"
 preserveAspectRatio="xMidYMid meet">
<metadata>
Created by potrace 1.16, written by Peter Selinger 2001-2019
</metadata>
<g transform="translate(0.000000,200.000000) scale(0.100000,-0.100000)"
fill="#000000" stroke="none">
<path d="M770 1981 c-197 -45 -358 -137 -495 -283 -179 -191 -275 -431 -275
-695 0 -175 28 -298 106 -458 121 -250 344 -437 616 -516 105 -30 322 -38 438
-14 465 94 790 501 790 989 -1 421 -255 794 -642 940 -154 57 -381 73 -538 37z
m439 -71 c315 -90 549 -324 647 -646 25 -81 27 -104 28 -254 1 -132 -3 -180
-18 -240 -43 -169 -124 -315 -243 -437 -120 -123 -343 -249 -394 -223 -18 10
-19 23 -19 174 0 168 -11 239 -44 275 -15 16 -11 19 61 34 222 49 326 179 338
422 4 75 0 101 -18 156 -13 37 -34 82 -48 100 -19 26 -24 40 -18 59 11 39 9
141 -5 185 -8 30 -18 41 -35 43 -32 5 -110 -22 -178 -62 l-58 -34 -65 14 c-36
7 -110 14 -165 14 -55 0 -129 -7 -165 -14 l-65 -14 -58 34 c-68 40 -146 67
-178 62 -17 -2 -27 -13 -35 -43 -14 -44 -16 -146 -5 -185 6 -19 1 -33 -17 -57
-57 -77 -80 -190 -63 -314 15 -107 44 -179 98 -239 59 -66 111 -96 214 -121
46 -12 85 -22 86 -23 2 -1 -6 -20 -17 -41 -11 -22 -20 -47 -20 -57 0 -41 -132
-56 -191 -22 -19 11 -51 45 -72 75 -21 29 -55 64 -75 76 -39 24 -106 31 -117
13 -4 -6 17 -32 45 -58 37 -33 63 -69 87 -120 54 -113 143 -162 264 -146 l49
7 0 -91 c0 -119 -9 -126 -113 -82 -253 105 -448 327 -533 606 -26 82 -28 102
-28 264 0 162 2 182 28 264 108 354 382 602 734 666 82 15 298 4 381 -20z"/>
</g>
</svg>
