<?xml version="1.0" encoding="UTF-8"?>
<svg version="1.1" xmlns="http://www.w3.org/2000/svg" width="512" height="512">
<path d="M0 0 C1.12958236 -0.01090081 1.12958236 -0.01090081 2.28198457 -0.02202183 C4.82013408 -0.0403544 7.35678804 -0.02287934 9.89492798 -0.00571251 C11.72694868 -0.01147046 13.55896362 -0.01940938 15.39096642 -0.02934873 C20.43666152 -0.0502901 25.48188595 -0.03987383 30.52758312 -0.02441764 C35.96461929 -0.01313781 41.40157264 -0.03055007 46.83859253 -0.04431725 C57.49421166 -0.06659024 68.14965504 -0.06173037 78.80528116 -0.04725404 C87.46268059 -0.03597776 96.12003064 -0.03442391 104.7774353 -0.03987312 C106.62328061 -0.04102237 106.62328061 -0.04102237 108.50641572 -0.04219484 C111.00601468 -0.04379341 113.50561362 -0.04541447 116.00521255 -0.04705779 C138.79364037 -0.06092014 161.58198344 -0.04652643 184.37039527 -0.02034481 C205.18217245 0.00338401 225.99379667 0.0012609 246.80557251 -0.02264977 C270.1772586 -0.04941163 293.54886479 -0.05995379 316.92056465 -0.04458845 C319.41114424 -0.04299564 321.90172385 -0.04142379 324.39230347 -0.03987312 C326.23058671 -0.03871606 326.23058671 -0.03871606 328.10600698 -0.03753562 C336.75643231 -0.0332123 345.40680351 -0.04051876 354.05722046 -0.05227089 C364.59431754 -0.06627105 375.13122832 -0.06254828 385.66830397 -0.03586717 C391.04803953 -0.02269555 396.42746407 -0.0176335 401.80719757 -0.03411293 C406.72712351 -0.0489563 411.64644867 -0.04091744 416.5663197 -0.01422517 C418.35091023 -0.00861629 420.13555099 -0.01153417 421.92010951 -0.02360411 C424.33738467 -0.03870575 426.75257446 -0.02332635 429.16973877 0 C429.8704167 -0.01170583 430.57109463 -0.02341166 431.29300523 -0.03547221 C434.90051431 0.03460417 436.35173131 0.41186512 439.02695906 2.90581876 C440.58320461 5.62629551 441.06949002 6.77313922 440.92656517 9.8326025 C440.88967984 10.71000044 440.85279451 11.58739839 440.81479144 12.49138415 C440.73891716 13.52686526 440.66304288 14.56234637 440.58486938 15.6292057 C440.45165311 17.49697672 440.45165311 17.49697672 440.31574559 19.40248048 C439.95980117 24.06387485 439.53811809 28.71891356 439.11773682 33.37485695 C438.9579228 35.18100352 438.79849253 36.98718408 438.63941133 38.79339534 C438.20259227 43.74013489 437.76027124 48.68636915 437.31701088 53.6325351 C436.83936696 58.97309404 436.36680819 64.3141033 435.89356995 69.65505409 C434.96629125 80.11061686 434.03416456 90.56574194 433.10019423 101.02070888 C432.34127833 109.51666333 431.58391351 118.01275468 430.82764816 126.50894547 C430.71998652 127.71840237 430.61232488 128.92785927 430.50140076 130.17396638 C430.28268841 132.63095985 430.06397688 135.08795339 429.84526615 137.54494701 C427.79471661 160.57810211 425.73837021 183.61073699 423.68028848 206.6432201 C421.79701866 227.72142478 419.92115655 248.80028106 418.04876406 269.87945452 C416.12613558 291.52339578 414.19846224 313.16688231 412.26533163 334.80988818 C411.18009667 346.9610273 410.09688486 359.11233872 409.01897049 371.26412964 C408.10161767 381.60523225 407.17952076 391.94589827 406.25125028 402.2860268 C405.77769649 407.5624841 405.30635281 412.83911435 404.8409214 418.11629486 C404.41491675 422.94578811 403.98263312 427.77467639 403.54531138 432.60315762 C403.38811633 434.35107669 403.23323072 436.0992053 403.08087392 437.84755274 C402.87355551 440.22265503 402.65784984 442.59685302 402.4400425 444.97101307 C402.38272705 445.65086446 402.32541161 446.33071584 402.26635933 447.03116879 C401.13373937 459.02484166 401.13373937 459.02484166 396.95498657 462.76616859 C391.1538462 467.25840182 383.63086393 468.60466251 376.66299438 470.43779945 C375.03727165 470.88067711 373.41202327 471.32529916 371.78721619 471.77152443 C368.29947707 472.72555814 364.80883337 473.66773227 361.31536865 474.60058022 C355.79075272 476.07582709 350.27315499 477.57616154 344.75650024 479.08086586 C338.99056468 480.65217644 333.22409612 482.22141023 327.45509338 483.78142738 C313.5428372 487.54368472 299.64682674 491.36167804 285.76065063 495.21904945 C284.80161457 495.48541395 283.84257851 495.75177845 282.85448074 496.0262146 C278.12740265 497.33936275 273.4005618 498.6533622 268.67385864 499.96785927 C260.65932223 502.19640066 252.64319954 504.41921441 244.62657738 506.64023972 C242.27516483 507.29188058 239.92394269 507.94420494 237.57273865 508.59659767 C236.16215929 508.98754588 234.75157125 509.37846274 233.3409729 509.76934242 C232.12571426 510.10634163 230.91045563 510.44334084 229.65837097 510.79055214 C228.64411545 511.06730782 227.62985992 511.34406349 226.58486938 511.6292057 C225.61868431 511.92274185 225.61868431 511.92274185 224.63298035 512.22220802 C211.3947452 514.85289117 198.6270792 511.34680607 185.99893188 507.67998695 C184.11942591 507.15220012 182.23935814 506.62641046 180.35877991 506.10245705 C175.33948595 504.69821654 170.32814947 503.26741268 165.31810379 501.83057594 C160.09395383 500.33661158 154.86346885 498.86517334 149.63345337 497.39190102 C143.23599439 495.58824825 136.83933159 493.78193917 130.44587708 491.96413612 C117.53344068 488.29415624 104.60445239 484.69388593 91.65100098 481.17144775 C86.43736304 479.75218137 81.22653903 478.32261231 76.01556015 476.89361858 C71.94669147 475.77871747 67.8763726 474.66985826 63.80221558 473.57442665 C60.01642855 472.55604546 56.23594962 471.51991364 52.4587574 470.47011948 C51.09216589 470.09372612 49.72376676 469.72382041 48.35345268 469.36121368 C33.47967285 465.41884438 33.47967285 465.41884438 29.58486938 459.6292057 C27.99583992 454.7624635 27.1580776 450.05228983 26.72969627 444.97101307 C26.62746488 443.8566627 26.62746488 443.8566627 26.52316821 442.7198002 C26.29690612 440.23523831 26.08035749 437.74992787 25.86376953 435.26450539 C25.70175541 433.46300098 25.5391448 431.66155014 25.37598956 429.86014873 C24.92970385 424.91331766 24.49193499 419.96576426 24.05556154 415.01805031 C23.58333753 409.6807508 23.10325428 404.34415755 22.62416077 399.00747108 C21.68692659 388.55334523 20.75701248 378.09858053 19.82961033 367.64357837 C18.74937468 355.46837164 17.66218031 343.29378934 16.57476075 331.1192225 C14.6346084 309.39462139 12.70119832 287.66942541 10.77139282 265.94390297 C8.8989317 244.86398582 7.02112471 223.78455356 5.13760376 202.70562172 C3.08684457 179.7549918 1.03883915 156.80411951 -1.00418603 133.85279971 C-1.2220935 131.40484827 -1.44000128 128.95689685 -1.65790939 126.50894547 C-1.76511972 125.30450131 -1.87233004 124.10005716 -1.98278917 122.8591147 C-2.73826228 114.37366744 -3.49561251 105.88838891 -4.25362015 97.40316772 C-5.17755283 87.05956821 -6.0982197 76.71568393 -7.01477887 66.37142833 C-7.48244837 61.09412165 -7.95151158 55.816949 -8.42440605 50.54010773 C-8.85744305 45.70750901 -9.28637462 40.87456391 -9.71206097 36.04131231 C-9.86658775 34.29491978 -10.02259491 32.54865746 -10.18025 30.80254456 C-10.63620174 25.74723983 -11.05401703 20.69223183 -11.41513062 15.6292057 C-11.49100489 14.59372459 -11.56687917 13.55824348 -11.64505267 12.49138415 C-11.681938 11.6139862 -11.71882333 10.73658826 -11.7568264 9.8326025 C-11.78999407 9.12261209 -11.82316174 8.41262168 -11.85733449 7.6811164 C-10.41885193 1.0062818 -6.08784583 -0.1017062 0 0 Z M73.58486938 99.6292057 C73.28558011 102.48553946 73.31046541 104.6399272 73.6065979 107.45098305 C73.70420709 108.68325158 73.70420709 108.68325158 73.80378819 109.94041443 C73.95555962 111.80438294 74.12013625 113.66733673 74.29497147 115.52928352 C74.60411707 118.83502413 74.87744833 122.14248847 75.14587402 125.4517765 C75.74579427 132.74344134 76.39024337 140.03078604 77.0435493 147.31780481 C77.30568531 150.24550994 77.5658055 153.17339299 77.82601267 156.10127008 C78.43989477 163.00752163 79.05749945 169.91343327 79.67739868 176.81914711 C80.31421673 183.91421447 80.94403983 191.00987939 81.57060999 198.10585845 C82.11246158 204.23919932 82.65891786 210.37211854 83.20896727 216.50472963 C83.53588456 220.15029436 83.86104693 223.79599323 84.18162346 227.44212151 C84.53844424 231.49810193 84.90485736 235.55316181 85.27212524 239.60820961 C85.37557251 240.79900124 85.47901978 241.98979286 85.58560181 243.21666908 C86.03103789 248.06157324 86.51823946 252.89816451 87.35441589 257.69301796 C87.47018762 258.36443007 87.58595934 259.03584217 87.7052393 259.7276001 C89.08518085 262.71079114 90.80375799 263.91255324 93.58486938 265.6292057 C96.23184009 266.01349899 98.45937709 266.16944312 101.09988403 266.13472939 C101.84791841 266.14081951 102.59595279 266.14690963 103.36665487 266.15318429 C105.86874729 266.16877843 108.36988165 266.1559989 110.87197876 266.14336586 C112.66754254 266.14882683 114.46310165 266.15606834 116.25865173 266.16495705 C120.12303083 266.18029557 123.98714442 266.18309562 127.85154724 266.17619133 C133.96112459 266.16541129 140.07042412 266.18277898 146.17996216 266.20400429 C155.84241108 266.23426936 165.5047778 266.24595957 175.16727018 266.24958074 C192.47313839 266.25622787 209.77894966 266.28521035 227.08474779 266.3346771 C233.15903253 266.35118482 239.23319774 266.3565899 245.30750275 266.35308671 C249.08479926 266.35264989 252.86205058 266.36021086 256.63933372 266.36976242 C258.39169825 266.3724467 260.14407191 266.37169096 261.89643288 266.36725235 C264.28768916 266.36161401 266.67861767 266.36815468 269.06985474 266.37764931 C269.76392347 266.37298609 270.4579922 266.36832288 271.17309332 266.36351836 C275.06474102 266.39370952 278.12506824 266.7953663 281.58486938 268.6292057 C286.03159982 277.52266657 281.89069755 294.3828325 280.98574829 304.04473305 C280.70851599 307.01872419 280.44492563 309.99371689 280.18252563 312.96904945 C280.0075545 314.88448821 279.83180096 316.7998557 279.65518188 318.7151432 C279.57800934 319.59238045 279.50083679 320.46961769 279.42132568 321.37343788 C278.8142138 327.71648349 277.6053514 333.56775964 275.58486938 339.6292057 C271.59149725 341.6427533 267.1898773 342.65548262 262.88955688 343.83623695 C262.14834595 344.04224022 261.40713501 344.24824348 260.64346313 344.46048927 C254.17832012 346.25415268 247.70634771 348.02345766 241.23449707 349.7927494 C236.92093936 350.97501206 232.62196452 352.19330235 228.33486938 353.46904945 C227.48424927 353.71485756 226.63362915 353.96066566 225.75723267 354.2139225 C224.29730073 354.63669769 222.84177146 355.07523605 221.39297485 355.53472328 C212.58421585 358.02001214 202.85188559 354.01071984 194.28408813 351.7307682 C193.24468582 351.45453621 192.20528351 351.17830421 191.13438416 350.89370155 C188.95485356 350.31232541 186.7758377 349.72901642 184.59732056 349.14385414 C181.26724239 348.25283389 177.93302619 347.37856759 174.59854126 346.5042057 C172.47261338 345.93492603 170.34695248 345.3646482 168.22158813 344.7932682 C167.2288237 344.53582832 166.23605927 344.27838844 165.21321106 344.01314735 C160.23851643 342.65465364 156.19616439 341.52521235 152.58486938 337.6292057 C150.49039202 333.79007111 150.18527341 330.07598849 149.83877563 325.7542057 C149.72340454 324.43936195 149.60803345 323.1245182 149.48916626 321.7698307 C149.31598659 319.69658754 149.14688956 317.62313121 148.98306274 315.54912758 C148.82086978 313.53306183 148.64314215 311.51880578 148.46377563 309.5042057 C148.31791016 307.70596352 148.31791016 307.70596352 148.1690979 305.8713932 C147.54973261 302.43421347 146.65887695 300.41812091 144.58486938 297.6292057 C141.4479515 295.53792711 140.6677442 295.37054931 137.08511353 295.32280922 C135.72338768 295.29882812 135.72338768 295.29882812 134.33415222 295.27436256 C133.35599045 295.26899986 132.37782867 295.26363716 131.37002563 295.25811195 C130.36273911 295.24908348 129.35545258 295.24005501 128.31764221 295.23075294 C126.18677751 295.21624225 124.05586818 295.20736168 121.92495728 295.20366859 C118.66304666 295.19176292 115.40302178 295.1425765 112.14151001 295.09209633 C110.07185779 295.08263333 108.00219395 295.07539771 105.93252563 295.07061195 C104.46831932 295.04131348 104.46831932 295.04131348 102.97453308 295.01142311 C97.54501352 295.02874215 97.54501352 295.02874215 92.93179321 297.66338539 C91.19822908 301.48055723 91.29691008 304.57307186 91.68643188 308.64092445 C91.74722931 309.45623131 91.80802673 310.27153816 91.8706665 311.11155128 C92.01087803 312.94177754 92.16173188 314.77120918 92.32131958 316.59984779 C92.60339078 319.84209884 92.85507298 323.08586409 93.10342407 326.33086586 C93.57912083 332.44327004 94.09681712 338.55126248 94.63174438 344.65874672 C94.85247189 347.20351812 95.06754343 349.74878579 95.2772522 352.29448891 C95.58399247 356.01786947 95.90675531 359.73954787 96.23330688 363.46123695 C96.32405487 364.59559685 96.41480286 365.72995674 96.50830078 366.89869118 C97.11195434 373.51538712 97.64677908 378.81192634 102.65888977 383.61794472 C106.34667666 386.15285708 109.83834205 387.15779413 114.12857056 388.29888344 C114.97820877 388.53527534 115.82784698 388.77166725 116.70323181 389.01522255 C119.50839475 389.79261874 122.31793827 390.55272047 125.12783813 391.31279945 C127.09568642 391.85454535 129.0632368 392.39737437 131.03050232 392.94123268 C136.21729582 394.37204507 141.40795859 395.78828843 146.59957886 397.20147133 C151.82033886 398.62519627 157.03743082 400.06222338 162.25479126 401.49834633 C168.15272889 403.12077101 174.05104077 404.74175531 179.95185852 406.35367775 C180.8526328 406.60033212 181.75340708 406.84698648 182.68147755 407.10111523 C184.45100389 407.58290316 186.22188825 408.05973378 187.99415874 408.53132725 C192.16259347 409.64776739 196.26704287 410.83409898 200.34674072 412.24300575 C210.33333148 415.59896527 217.29851996 415.8098907 227.42079544 412.34340858 C230.55089882 411.31038989 233.72727691 410.48145516 236.91232967 409.6361866 C239.57568176 408.92891792 242.23261089 408.20106928 244.88868713 407.46697426 C245.80622206 407.21342674 246.72375698 406.95987923 247.66909599 406.69864845 C248.60938715 406.43854485 249.54967831 406.17844124 250.51846313 405.9104557 C251.48548723 405.64330254 252.45251133 405.37614937 253.44883919 405.10090065 C258.54974671 403.69155082 263.64998434 402.27980708 268.74966431 400.86602211 C273.98842013 399.41420053 279.22946257 397.97081632 284.47105312 396.52926826 C288.53455089 395.41006776 292.59630192 394.28462867 296.65760994 393.15751076 C298.58932435 392.62256713 300.52168229 392.08994132 302.45471001 391.55976295 C305.15679623 390.81803134 307.85627652 390.06743972 310.55532837 389.31475258 C311.33940063 389.1016494 312.1234729 388.88854622 312.93130493 388.66898537 C323.04763419 386.09881278 323.04763419 386.09881278 330.58486938 379.6292057 C331.0470296 377.37842214 331.0470296 377.37842214 331.23574829 374.82598305 C331.37741425 373.33023499 331.37741425 373.33023499 331.52194214 371.80426979 C331.61747375 370.70235802 331.71300537 369.60044624 331.81143188 368.4651432 C331.97454865 366.70224197 331.97454865 366.70224197 332.14096069 364.90372658 C332.44215438 361.6285162 332.73559003 358.35278099 333.02553558 355.0765667 C333.33612933 351.58473631 333.65562912 348.09371998 333.97402954 344.60259438 C334.46276837 339.23217857 334.94734386 333.86140675 335.42817497 328.49027729 C336.33551438 318.35636157 337.26363088 308.22445141 338.19818115 298.09301186 C338.84889964 291.03726195 339.49460782 283.98105664 340.13879204 276.92470741 C340.59294049 271.95032383 341.04857432 266.97608834 341.50802612 262.00219154 C341.94532915 257.26458631 342.37663605 252.52646942 342.80368805 247.78792953 C342.96239085 246.03752168 343.12308108 244.28729262 343.2859726 242.53726959 C346.00955953 226.66245765 346.00955953 226.66245765 343.5435133 211.99786377 C340.53657537 209.89668049 337.43772095 210.21431597 333.89949036 210.24393654 C332.7136818 210.236083 332.7136818 210.236083 331.50391752 210.2280708 C328.846096 210.2140648 326.18875695 210.22142198 323.53091431 210.22857094 C321.62889676 210.2228308 319.72688286 210.21574901 317.82487488 210.20742226 C313.72423617 210.192286 309.62372785 210.18653689 305.52306175 210.18795013 C299.03954679 210.18997996 292.55620768 210.17044222 286.07273865 210.14777565 C273.47713215 210.10675108 260.88153933 210.08818691 248.28588104 210.07160378 C232.2638127 210.04926794 216.24178481 210.01572148 200.21978265 209.96440464 C193.77447733 209.94447437 187.32926359 209.93490238 180.88392866 209.93345249 C176.87276701 209.9307019 172.86165586 209.9198709 168.85051537 209.90694237 C166.99053414 209.90266285 165.13054142 209.90180257 163.2705574 209.90461731 C160.7306547 209.90801992 158.19107066 209.89923116 155.65119934 209.88749123 C154.91587878 209.89147232 154.18055822 209.89545341 153.42295521 209.89955515 C149.11339866 209.86427194 145.5344586 209.3944238 141.58486938 207.6292057 C139.40342387 204.35703743 139.17482468 202.75990772 138.76846313 198.91436195 C138.58211304 197.18572914 138.58211304 197.18572914 138.39199829 195.42217445 C138.27002075 194.19111977 138.14804321 192.96006508 138.02236938 191.6917057 C137.8316687 189.81225258 137.8316687 189.81225258 137.63711548 187.8948307 C136.89089915 180.31458912 136.19402189 172.73104749 135.70986938 165.1292057 C135.64855835 164.31846596 135.58724731 163.50772621 135.52407837 162.67241859 C135.36549211 159.65537206 135.32408663 157.2123034 136.57053089 154.42531395 C139.68376533 151.64936241 143.02492608 152.07248348 146.99397278 152.11022377 C148.29638734 152.09897189 148.29638734 152.09897189 149.62511331 152.0874927 C152.54577653 152.06713057 155.46566972 152.07533484 158.38638306 152.08330727 C160.47547681 152.07457689 162.56456386 152.06409299 164.65364075 152.05198097 C170.33515292 152.02403487 176.01644785 152.02071819 181.69801879 152.02170086 C187.63181324 152.01857915 193.56550877 151.99297646 199.49925232 151.96972084 C210.74017909 151.92910036 221.98104777 151.90880592 233.22203666 151.89574695 C246.01756197 151.87989737 258.81298811 151.84149038 271.60845602 151.80115366 C297.93389389 151.71867194 324.25932912 151.66463154 350.58486938 151.6292057 C350.907239 149.22778713 351.22903008 146.82629338 351.55049133 144.42475319 C351.64127315 143.74894534 351.73205497 143.07313748 351.82558775 142.37685061 C352.76331367 135.36451889 353.519147 128.34402297 354.18228149 121.30083656 C354.32729439 119.79457893 354.47980387 118.28902659 354.63931274 116.784235 C354.87388731 114.56589785 355.08532673 112.3463978 355.29190063 110.12529945 C355.48489746 108.17901649 355.48489746 108.17901649 355.68179321 106.19341469 C355.57295236 102.19097728 354.71371206 99.98962071 352.58486938 96.6292057 C350.20582319 95.43968261 348.76005991 95.50075648 346.10481548 95.49498463 C345.15643328 95.49052678 344.20805108 95.48606894 343.23093003 95.48147601 C341.65727755 95.48175255 341.65727755 95.48175255 340.05183411 95.48203468 C338.94292684 95.478358 337.83401958 95.47468131 336.69150907 95.4708932 C332.95047289 95.45982028 329.20946445 95.45600644 325.46841431 95.45220375 C322.79646131 95.4459419 320.12451132 95.43930848 317.45256042 95.43229103 C309.41622709 95.41251653 301.37989247 95.4024594 293.34354088 95.39356324 C289.56112696 95.38918216 285.77871445 95.38381491 281.99630165 95.37857437 C269.42636372 95.3615615 256.85642667 95.34706648 244.286479 95.33982563 C241.02355638 95.33791567 237.76063377 95.33599535 234.49771118 95.33403969 C233.68670652 95.33355595 232.87570186 95.33307221 232.04012129 95.33257381 C218.89713444 95.32427034 205.75423851 95.29892837 192.61129137 95.26645901 C179.12450407 95.23341121 165.63776301 95.21537896 152.15093499 95.21218139 C144.57579271 95.21001423 137.00078304 95.20123553 129.42568016 95.17572021 C122.97546482 95.15404432 116.52541429 95.14594737 110.07516667 95.155687 C106.78332721 95.1602408 103.49190009 95.15611446 100.20009232 95.13892555 C96.63272306 95.12133618 93.06622413 95.12824966 89.49885559 95.14145851 C87.93524136 95.12500464 87.93524136 95.12500464 86.34003896 95.10821837 C80.92670194 95.15679712 77.30490455 95.21115074 73.58486938 99.6292057 Z " fill="#DD512A" transform="translate(41.415130615234375,-0.6292057037353516)"/>
</svg>
